<?xml version="1.0" encoding="UTF-8" standalone="no"?>
<svg
   width="139.1999969482422mm"
   height="111.2460021972656mm"
   viewBox="-69.5999984741211 -55.6230010986328 139.1999969482422 111.2460021972656"
   version="1.1"
   id="svg1"
   sodipodi:docname="Sofle V1 Bottom.svg"
   xml:space="preserve"
   inkscape:version="1.4 (86a8ad7, 2024-10-11)"
   xmlns:inkscape="http://www.inkscape.org/namespaces/inkscape"
   xmlns:sodipodi="http://sodipodi.sourceforge.net/DTD/sodipodi-0.dtd"
   xmlns="http://www.w3.org/2000/svg"
   xmlns:svg="http://www.w3.org/2000/svg"
   xmlns:rdf="http://www.w3.org/1999/02/22-rdf-syntax-ns#"
   xmlns:cc="http://creativecommons.org/ns#"
   xmlns:dc="http://purl.org/dc/elements/1.1/"><defs
     id="defs1" /><sodipodi:namedview
     id="namedview1"
     pagecolor="#505050"
     bordercolor="#eeeeee"
     borderopacity="1"
     inkscape:showpageshadow="0"
     inkscape:pageopacity="0"
     inkscape:pagecheckerboard="0"
     inkscape:deskcolor="#505050"
     inkscape:document-units="mm"
     inkscape:zoom="1.6270993"
     inkscape:cx="239.07577"
     inkscape:cy="264.58128"
     inkscape:window-width="2089"
     inkscape:window-height="1211"
     inkscape:window-x="1651"
     inkscape:window-y="784"
     inkscape:window-maximized="0"
     inkscape:current-layer="svg1" /><title
     id="title1">svgOutput</title><desc
     id="desc1">made with tinkercad</desc><path
     d="m 68.721025,-47.228836 0.01685,47.36700196 0.01015,28.52499904 -0.021,0.218999 -0.06001,0.207001 -0.096,0.188 -0.127999,0.167 -0.155998,0.141001 -0.18,0.111 -0.200997,0.077 -0.218002,0.038 -2.003998,0.16128 -16.709003,1.344721 -0.135998,0.019 -0.132004,0.035 -0.125,0.049 -0.118999,0.064 -0.109997,0.078 -0.101002,0.089 -0.09,0.102 -0.079,0.113001 -0.633209,1.040001 -7.851791,12.895999 -0.086,0.122998 -0.1,0.109001 -0.112,0.094 -0.122001,0.08 -0.131001,0.063 -0.139,0.046 -0.144996,0.029 -0.149002,0.009 H 32.916029 22.890028 l -0.810002,-0.027 -0.806,-0.082 -0.796999,-0.137001 -0.788,-0.190003 -15.4920001,-4.302997 -0.4589999,-0.119 -0.4629998,-0.104 -0.4650002,-0.088 -0.4689998,-0.072 -0.4700001,-0.056 -0.472,-0.04 -0.47399997,-0.024 -0.47400001,-0.008 h -0.303 -14.91600012 l -0.488,0.012 -0.486,0.035 -0.482999,0.057 -0.479,0.081 -0.475001,0.103001 -0.470001,0.126 -0.463999,0.147998 -0.457,0.171002 -14.050002,5.623939 -18.029998,7.21706 -0.202,0.06 -0.205002,0.022 -0.201999,-0.014 -0.196,-0.049 -0.183998,-0.082 -0.168003,-0.114003 -0.146999,-0.143997 -0.121998,-0.173 -12.284058,-21.278999 -1.027946,-1.780646 -0.162994,-0.282356 -0.04501,-0.087 -2.300995,-4.902999 -0.129006,-0.295 -0.111,-0.299999 -0.09599,-0.305 -0.078,-0.310002 -0.061,-0.313999 -0.04301,-0.316999 -0.02699,-0.319001 -0.009,-0.321001 -3.06e-4,-23.23399704 -6.94e-4,-53.47100196 0.02299,-0.231998 0.068,-0.216999 0.106003,-0.195004 0.14,-0.170997 0.170997,-0.14 0.195999,-0.107002 0.216004,-0.067 0.232002,-0.023 H -65.387981 -32.61998 0.14802712 27.788026 l 1.033001,0.028 1.171999,0.076 1.17,0.112 1.024002,0.138 0.729001,0.118168 32.768001,5.311462 2.069,0.335369 0.201996,0.052 0.184998,0.085 0.165001,0.114003 0.140999,0.139999 0.116004,0.161999 0.086,0.181 0.054,0.195999 0.019,0.207 m -18.571999,17.463002 0.032,-0.264 -0.032,-0.263001 -0.094,-0.248001 -0.151,-0.217998 -0.198002,-0.176001 -0.234997,-0.122999 -0.171002,-0.04242 -0.087,-0.02158 h -0.265 l -0.257,0.064 -0.235,0.122999 -0.197998,0.176001 -0.151001,0.217998 -0.094,0.248001 -0.032,0.263001 0.032,0.264 0.094,0.247999 0.151001,0.218 0.197998,0.176001 0.235,0.122999 0.257,0.063 h 0.265 l 0.087,-0.02124 0.171002,-0.04176 0.234997,-0.122999 0.198002,-0.176001 0.151,-0.218 0.094,-0.247999 m 0,38.1999999 0.032,-0.263 -0.032,-0.264 -0.094,-0.247 -0.151001,-0.218999 -0.198002,-0.176 -0.234997,-0.122999 -0.171002,-0.04176 -0.087,-0.02124 h -0.265 l -0.257,0.063 -0.235,0.123 -0.197998,0.176 -0.151001,0.219 -0.094,0.247 -0.032,0.264 0.032,0.263 0.094,0.2480001 0.151001,0.2180004 0.197998,0.1759992 0.235,0.123001 0.257,0.064 h 0.265 l 0.087,-0.02158 0.171002,-0.04242 0.234997,-0.123001 0.198002,-0.1759992 0.151,-0.2180004 0.094,-0.2480001 m -78.244,-41.1739979 -0.04169,0.109996 -0.05231,0.138001 -0.032,0.263 0.032,0.263001 0.094,0.247999 0.15,0.218001 0.199001,0.176 0.234999,0.122999 0.257,0.064 h 0.265001 l 0.257999,-0.064 0.235001,-0.122999 0.02,-0.01778 0.178002,-0.158222 0.150999,-0.218001 0.094,-0.247999 0.032,-0.263001 -0.032,-0.263 -0.05231,-0.138001 -0.04169,-0.109996 -0.150999,-0.219002 -0.198,-0.175999 -0.235003,-0.122999 -0.257999,-0.063 h -0.265001 l -0.257,0.063 -0.234999,0.123001 -0.199001,0.175999 -0.15,0.219002 m 2.042,38.7739989 0.032,-0.264 -0.032,-0.263 -0.094,-0.248 -0.150999,-0.218 -0.178002,-0.158222 -0.02,-0.01778 -0.234999,-0.123 -0.257999,-0.064 h -0.265001 l -0.257,0.064 -0.234999,0.123 -0.199001,0.176 -0.15,0.218 -0.094,0.248 -0.032,0.263 0.032,0.264 0.094,0.248 0.15,0.218 0.199001,0.176 0.234999,0.123 0.257,0.063 h 0.265001 l 0.257999,-0.063 0.235001,-0.123 0.198,-0.176 0.150999,-0.218 0.094,-0.248 m -26.643002,16.4260011 -0.07808,0.205999 -0.01592,0.042 -0.032,0.263 0.032,0.264 0.094,0.247999 0.151001,0.218001 0.198002,0.176 0.235001,0.123 0.257999,0.063 h 0.264999 l 0.257,-0.063 0.235001,-0.123 0.045,-0.0398 0.154,-0.136202 0.150001,-0.218001 0.094,-0.247999 0.032,-0.264 -0.032,-0.263 -0.01592,-0.042 -0.07808,-0.205997 -0.150001,-0.218001 -0.198998,-0.176001 -0.235001,-0.122999 -0.257,-0.064 h -0.264999 l -0.257999,0.064 -0.235001,0.122999 -0.198002,0.176001 z"
     fill="none"
     stroke="#ff0000"
     stroke-width="0.001mm"
     id="path1-2"
     style="stroke-width:0.104;stroke-dasharray:none" /><metadata
     id="metadata1"><rdf:RDF><cc:Work
         rdf:about=""><dc:title>svgOutput</dc:title></cc:Work></rdf:RDF></metadata></svg>
