<?xml version="1.0" encoding="UTF-8" standalone="no"?>
<svg
   width="139.19000244140625mm"
   height="111.2460021972656mm"
   viewBox="-69.59500122070312 -55.6230010986328 139.19000244140625 111.2460021972656"
   version="1.1"
   id="svg1"
   sodipodi:docname="Sofle v1 Top.svg"
   inkscape:version="1.4 (86a8ad7, 2024-10-11)"
   xmlns:inkscape="http://www.inkscape.org/namespaces/inkscape"
   xmlns:sodipodi="http://sodipodi.sourceforge.net/DTD/sodipodi-0.dtd"
   xmlns="http://www.w3.org/2000/svg"
   xmlns:svg="http://www.w3.org/2000/svg">
  <defs
     id="defs1" />
  <sodipodi:namedview
     id="namedview1"
     pagecolor="#505050"
     bordercolor="#eeeeee"
     borderopacity="1"
     inkscape:showpageshadow="0"
     inkscape:pageopacity="0"
     inkscape:pagecheckerboard="0"
     inkscape:deskcolor="#505050"
     inkscape:document-units="mm"
     inkscape:zoom="2.3010658"
     inkscape:cx="242.9309"
     inkscape:cy="336.14857"
     inkscape:window-width="1673"
     inkscape:window-height="1211"
     inkscape:window-x="2012"
     inkscape:window-y="824"
     inkscape:window-maximized="0"
     inkscape:current-layer="svg1" />
  <title
     id="title1">svgOutput</title>
  <desc
     id="desc1">made with tinkercad</desc>
  <path
     style="stroke-width:0.104;stroke-dasharray:none;fill:none;stroke:#ff0000;stroke-opacity:1"
     d="m -49.152,29.220928 -6.144036,3.547074 -5.192962,2.997997 7,12.124 12.125,-6.998001 -4.689759,-8.123996 -2.310241,-4.002001 z"
     id="path70" />
  <path
     style="stroke-width:0.104;stroke-dasharray:none;fill:none;stroke:#ff0000;stroke-opacity:1"
     d="M -64.833,16.384001 V 18.611 h 7.488998 8.172001 V 16.384001 6.625 H -64.833 v 9.759001"
     id="path69" />
  <path
     style="stroke-width:0.104;stroke-dasharray:none;fill:none;stroke:#ff0000;stroke-opacity:1"
     d="M -0.88700002,25.01 H -5.2859998 -10.386 -14.887 v 7.758002 6.241996 H -0.88700002 V 32.768002 25.01"
     id="path68" />
  <path
     style="stroke-width:0.104;stroke-dasharray:none;fill:none;stroke:#ff0000;stroke-opacity:1"
     d="m -29.388,8.3599997 h -3.380002 -10.616996 V 16.384001 22.358 H -32.768002 -29.388 V 16.384001 8.3599997"
     id="path67" />
  <path
     style="stroke-width:0.104;stroke-dasharray:none;fill:none;stroke:#ff0000;stroke-opacity:1"
     d="m -10.386,6.059 h -5.998001 -8.002998 V 8.1920004 8.3599997 16.384001 20.059 H -10.386 V 16.384001 6.059"
     id="path66" />
  <path
     style="stroke-width:0.104;stroke-dasharray:none;fill:none;stroke:#ff0000;stroke-opacity:1"
     d="m -29.388,-10.642 h -3.380002 -10.616996 V 0 3.359 H -32.768002 -29.388 V 0 -10.642"
     id="path65" />
  <path
     style="stroke-width:0.104;stroke-dasharray:none;fill:none;stroke:#ff0000;stroke-opacity:1"
     d="M -24.386999,-10.642 V 0 0.958 h 8.002998 5.998001 V 0 -13.042 h -14.000999 v 2.4"
     id="path64" />
  <path
     style="stroke-width:0.104;stroke-dasharray:none;fill:none;stroke:#ff0000;stroke-opacity:1"
     d="m -10.386,-18.041 v -14 h -5.998001 -8.002998 v 7.465 6.535 h 8.002998 5.998001"
     id="path63" />
  <path
     style="stroke-width:0.104;stroke-dasharray:none;fill:none;stroke:#ff0000;stroke-opacity:1"
     d="M 8.7119999,18.66 V 6.059 4.6589999 H 0 -5.2859998 V 6.059 16.384001 18.66 H 0 8.7119999"
     id="path62" />
  <path
     style="stroke-width:0.104;stroke-dasharray:none;fill:none;stroke:#ff0000;stroke-opacity:1"
     d="m 13.713,20.059 h 13.999999 v -14 H 13.713 v 14"
     id="path61" />
  <path
     style="stroke-width:0.104;stroke-dasharray:none;fill:none;stroke:#ff0000;stroke-opacity:1"
     d="M 18.214001,25.01 H 13.713 8.7119999 4.2129998 v 7.758002 6.241996 h 12.1710012 1.83 V 32.768002 29.16 25.01"
     id="path60" />
  <path
     style="stroke-width:0.104;stroke-dasharray:none;fill:none;stroke:#ff0000;stroke-opacity:1"
     d="m 32.813,29.16 h -0.045 -5.055003 -4.401998 v 3.608002 10.389999 h 9.457001 4.542999 V 32.768002 32.105522 29.16 H 32.813"
     id="path59" />
  <path
     style="stroke-width:0.104;stroke-dasharray:none;fill:none;stroke:#ff0000;stroke-opacity:1"
     d="m 32.813,16.384001 v 8.373998 H 46.811001 V 16.384001 10.758 H 32.813 v 5.626001"
     id="path58" />
  <path
     style="stroke-width:0.104;stroke-dasharray:none;fill:none;stroke:#ff0000;stroke-opacity:1"
     d="m 65.811996,26.259001 h 0.04801 V 12.259 h -0.04801 -0.275993 -13.673004 v 4.125001 9.875 h 13.673004 0.275993"
     id="path57" />
  <path
     style="stroke-width:0.104;stroke-dasharray:none;fill:none;stroke:#ff0000;stroke-opacity:1"
     d="m 13.713,-18.139999 h 13.999999 v -14 H 13.713 v 14"
     id="path56" />
  <path
     style="stroke-width:0.104;stroke-dasharray:none;fill:none;stroke:#ff0000;stroke-opacity:1"
     d="M 13.713,-13.042 V 0 0.958 H 27.712999 V 0 -13.042 H 13.713"
     id="path55" />
  <path
     style="stroke-width:0.104;stroke-dasharray:none;fill:none;stroke:#ff0000;stroke-opacity:1"
     d="m 27.712999,-37.141998 v -14 H 13.713 v 14 h 13.999999"
     id="path54" />
  <path
     style="stroke-width:0.104;stroke-dasharray:none;fill:none;stroke:#ff0000;stroke-opacity:1"
     d="M 46.811001,-27.441 H 40.959999 32.813 v 2.865 8.191999 2.943001 h 13.998001 v -2.943001 -8.191999 -2.865"
     id="path53" />
  <path
     style="stroke-width:0.104;stroke-dasharray:none;fill:none;stroke:#ff0000;stroke-opacity:1"
     d="m 46.811001,-44.84 v -1.501999 H 32.813 V -32.768002 -32.341 H 40.959999 45.056 46.811001 V -32.768002 -44.84"
     id="path52" />
  <path
     style="stroke-width:0.104;stroke-dasharray:none;fill:none;stroke:#ff0000;stroke-opacity:1"
     d="m 65.536003,-11.942 h 0.275993 V -25.940001 H 65.536003 51.812 v 9.556 4.442001 h 13.724003"
     id="path51" />
  <path
     style="stroke-width:0.104;stroke-dasharray:none;fill:none;stroke:#ff0000;stroke-opacity:1"
     d="M 65.811996,0 V -6.7399998 H 65.536003 51.812 V 0 7.2600002 h 13.724003 0.275993 V 0"
     id="path50" />
  <path
     style="stroke-width:0.104;stroke-dasharray:none;fill:none;stroke:#ff0000;stroke-opacity:1"
     d="M 65.811996,-44.84 H 65.536003 51.812 V -32.768002 -30.84 h 13.724003 0.275993 V -32.768002 -44.84"
     id="path49" />
  <path
     style="stroke-width:0.104;stroke-dasharray:none;fill:none;stroke:#ff0000;stroke-opacity:1"
     d="m -52.848999,22.513 -0.0018,0.015 -0.03017,0.247999 0.032,0.264002 0.094,0.247999 0.151001,0.218001 0.198002,0.175998 0.234997,0.123001 0.257,0.063 h 0.266002 l 0.257,-0.063 0.235001,-0.123001 0.197998,-0.175998 0.151001,-0.218001 0.094,-0.247999 0.032,-0.264002 -0.03017,-0.247999 -0.0018,-0.015 -0.094,-0.248001 -0.151001,-0.217998 -0.197998,-0.176001 -0.235001,-0.123001 -0.257,-0.064 h -0.266002 l -0.257,0.064 -0.234997,0.123001 -0.198002,0.176001 -0.151001,0.217998 -0.094,0.248001"
     id="path48" />
  <path
     style="stroke-width:0.104;stroke-dasharray:none;fill:none;stroke:#ff0000;stroke-opacity:1"
     d="M -20.434,39.626999 -22.271114,32.768002 -24.056,26.104 l -0.330999,0.08873 -5.001001,1.340578 -3.380002,0.906048 -4.810997,1.289646 0.813965,3.039002 2.808033,10.483997 1.188999,-0.318726 3.590256,-0.96241 2.68282,-0.719162 1.06208,-0.284702 4.998846,-1.34"
     id="path47" />
  <path
     style="stroke-width:0.104;stroke-dasharray:none;fill:none;stroke:#ff0000;stroke-opacity:1"
     d="m -26.114,5.8390002 0.032,-0.263 -0.032,-0.2640004 -0.094,-0.2479997 -0.15,-0.2179999 -0.198999,-0.1760001 -0.067,-0.035068 -0.167999,-0.087932 -0.257,-0.063 h -0.264999 l -0.258002,0.063 -0.233999,0.1230002 -0.198999,0.1760001 -0.151001,0.2179999 -0.094,0.2479997 -0.032,0.2640004 0.032,0.263 0.094,0.2479997 0.03948,0.057 0.111519,0.1609997 0.198999,0.1760001 0.233999,0.1230002 0.258002,0.063 H -27.049 l 0.257,-0.063 0.235001,-0.1230002 0.198999,-0.1760001 0.110779,-0.1609997 0.03922,-0.057 0.094,-0.2479997"
     id="path46" />
  <path
     style="stroke-width:0.104;stroke-dasharray:none;fill:none;stroke:#ff0000;stroke-opacity:1"
     d="m -43.384998,-15.641 h 10.616996 3.380002 v -0.743001 -8.191999 -4.096001 -0.969 h -3.380002 -10.616996 V -15.641"
     id="path45" />
  <path
     style="stroke-width:0.104;stroke-dasharray:none;fill:none;stroke:#ff0000;stroke-opacity:1"
     d="M -5.2859998,-0.34200001 H 0 8.7119999 V -14.34 H 0 -5.2859998 v 1.298 12.69999999"
     id="path44" />
  <path
     style="stroke-width:0.104;stroke-dasharray:none;fill:none;stroke:#ff0000;stroke-opacity:1"
     d="M -5.2859998,-19.440001 H 0 8.7119999 v -12.699998 -0.628003 -0.673 H 0 -5.2859998 v 0.673 0.727002 12.600999"
     id="path43" />
  <path
     style="stroke-width:0.104;stroke-dasharray:none;fill:none;stroke:#ff0000;stroke-opacity:1"
     d="m -24.386999,-37.141998 h 8.002998 5.998001 v -14 h -5.998001 -8.002998 v 1.989998 0.409999 11.600003"
     id="path42" />
  <path
     style="stroke-width:0.104;stroke-dasharray:none;fill:none;stroke:#ff0000;stroke-opacity:1"
     d="m -29.388,-34.741001 v -0.0818 -0.99577 -1.759228 -3.746986 -7.417214 h -2.811364 -0.568638 -10.616996 v 14.001 h 10.616996 0.721779 2.658223"
     id="path41" />
  <path
     style="fill:none;stroke:#ff0000;stroke-width:0.104;stroke-dasharray:none;stroke-opacity:1"
     d="m -28.156,-32.935001 c -0.03067,0.08947 -0.07323,0.176011 -0.09635,0.267342 -0.0072,0.08982 -0.02965,0.179632 -0.02651,0.269448 0.01799,0.103571 0.01132,0.213221 0.05649,0.310093 0.03486,0.08567 0.05648,0.178294 0.118153,0.249868 0.05144,0.07169 0.09393,0.151312 0.167337,0.203491 0.06718,0.05744 0.127554,0.124742 0.211375,0.158067 0.07851,0.03965 0.152812,0.09038 0.241767,0.102583 0.08618,0.01983 0.170895,0.05172 0.260677,0.04211 0.08815,-0.0015 0.177775,0.009 0.262304,-0.02197 0.08515,-0.02268 0.17449,-0.03436 0.249327,-0.08419 0.07744,-0.0423 0.161854,-0.07447 0.222548,-0.141076 0.0652,-0.05967 0.139512,-0.111273 0.18243,-0.19067 0.04872,-0.07334 0.107937,-0.141176 0.130684,-0.228118 0.0299,-0.08302 0.07142,-0.163174 0.07275,-0.253236 0.0092,-0.08767 0.03037,-0.175334 0.01003,-0.263001 -0.01195,-0.08809 -0.01303,-0.178871 -0.05402,-0.259807 -0.0323,-0.08135 -0.05434,-0.168049 -0.112383,-0.235947 -0.05115,-0.07198 -0.09303,-0.152177 -0.1669,-0.204026 -0.06715,-0.05715 -0.127668,-0.123918 -0.211137,-0.157386 -0.07887,-0.03991 -0.153406,-0.09126 -0.242896,-0.103214 -0.08584,-0.01956 -0.170259,-0.0509 -0.259615,-0.04135 -0.08816,0.0014 -0.177734,-0.0089 -0.262403,0.02157 -0.08546,0.02243 -0.175301,0.03332 -0.250013,0.08401 -0.07719,0.0425 -0.160962,0.07548 -0.221936,0.141472 -0.06521,0.05933 -0.139527,0.110568 -0.182332,0.189812 -0.03313,0.04805 -0.06625,0.09609 -0.09938,0.144136 z"
     id="path40" />
  <path
     style="stroke-width:0.104;stroke-dasharray:none;fill:none;stroke:#ff0000;stroke-opacity:1"
     d="M -5.2859998,-38.530998 H 0 8.7119999 v -12.611 -1.390003 H 0 -5.2859998 v 1.390003 12.611"
     id="path39" />
  <path
     style="stroke-width:0.104;stroke-dasharray:none;fill:none;stroke:#ff0000;stroke-opacity:1"
     d="m 50.084999,8.2390003 0.032,-0.2630005 -0.032,-0.263 -0.094,-0.2479996 L 49.84,7.2459998 49.641998,7.0710001 49.407001,6.947 49.152,6.8844905 l -0.002,-4.907e-4 h -0.266003 l -0.257,0.063 -0.235001,0.1240001 -0.197998,0.1749997 -0.151001,0.2190004 -0.094,0.2479996 -0.032,0.263 0.02628,0.2160006 0.0057,0.047 0.094,0.2480002 0.151001,0.2179994 0.197998,0.1759997 0.235001,0.1230001 0.257,0.064 h 0.266003 L 49.152,9.067502 49.407001,9.0039997 49.641998,8.8809996 49.84,8.7049999 l 0.151001,-0.2179994 0.094,-0.2480002"
     id="path38" />
  <path
     style="stroke-width:0.104;stroke-dasharray:none;fill:none;stroke:#ff0000;stroke-opacity:1"
     d="M 46.811001,-8.2419996 H 32.813 V 0 2.8792102 5.7589998 h 11.747715 2.250286 V 0 -6.7399998 -8.2419996"
     id="path37" />
  <path
     style="stroke-width:0.104;stroke-dasharray:none;fill:none;stroke:#ff0000;stroke-opacity:1"
     d="m 50.084999,-29.959999 0.032,-0.263001 -0.032,-0.264 -0.094,-0.246999 -0.151001,-0.219 -0.198002,-0.176001 -0.234997,-0.123001 -0.255001,-0.06251 -0.002,-4.91e-4 h -0.266003 l -0.257,0.063 -0.235001,0.123001 -0.197998,0.176001 -0.151001,0.219 -0.0053,0.014 -0.08867,0.232999 -0.032,0.264 0.032,0.263001 0.094,0.247999 0.151001,0.218001 0.197998,0.175998 0.235001,0.123001 0.257,0.064 h 0.266003 l 0.002,-4.97e-4 0.255001,-0.0635 0.234997,-0.123001 0.198002,-0.175998 0.151001,-0.218001 0.094,-0.247999"
     id="path36" />
  <path
     style="stroke-width:0.104;stroke-dasharray:none;fill:none;stroke:#ff0000;stroke-opacity:1"
     d="m 68.573997,28.743999 -0.06,0.206002 -0.096,0.188999 -0.127998,0.167 -0.155998,0.141001 -0.180001,0.111 -0.201004,0.077 -0.217994,0.038 -1.675003,0.13481 -0.04801,0.0039 -0.275993,0.02221 -13.673004,1.100447 -2.710999,0.218189 -0.328998,0.02648 -0.136002,0.019 -0.132,0.035 -0.125999,0.049 -0.118,0.064 -0.110001,0.077 -0.101002,0.09 -0.091,0.102 -0.078,0.113001 -0.633209,1.040001 -7.851792,12.895999 -0.086,0.122998 -0.099,0.109001 -0.112004,0.094 -0.122997,0.08 -0.131001,0.063 -0.138999,0.046 -0.145001,0.029 -0.148998,0.01 H 37.311001 32.768002 23.311001 22.739 l -0.809999,-0.028 -0.805,-0.082 L 20.326,45.972 19.538,45.780998 18.214001,45.413227 16.384001,44.9049 4.2129998,41.524109 4.0469999,41.478001 3.5880001,41.359001 3.125,41.255001 2.6600001,41.167999 2.191,41.096001 1.721,41.040001 1.249,41 0.77499998,40.974998 0.301,40.966999 H 0 -0.88700002 -14.887 h -0.03 l -0.488,0.012 -0.486,0.035 -0.483001,0.058 -0.479,0.08 -0.474998,0.104001 -0.470001,0.125 -0.463999,0.148998 -0.457001,0.170002 -14.049002,5.62389 -0.08885,0.03557 -3.877602,1.552223 -14.062542,5.629314 -0.202999,0.06 -0.203999,0.022 -0.203002,-0.014 -0.195,-0.049 -0.184998,-0.082 -0.167,-0.114003 -0.148002,-0.143997 -0.120999,-0.173 -2.982288,-5.166439 -6.998745,-12.124439 -2.302116,-3.988121 -1.029854,-1.78409 -0.160996,-0.278912 -0.046,-0.087 -2.301003,-4.903 -0.127998,-0.294 -0.112,-0.300999 -0.095,-0.305 -0.078,-0.310002 -0.06,-0.313999 -0.044,-0.316999 -0.026,-0.319001 -0.008,-0.321001 0.01091,-6.849998 0.01709,-10.733001 0.024,-0.2319999 0.067,-0.217 0.106995,-0.1950001 0.141006,-0.171 0.169998,-0.1409998 0.195999,-0.106 0.217003,-0.067 0.231995,-0.023 h 1.876999 16.384003 2.257 l 0.211002,-0.021 0.200996,-0.061 0.185002,-0.099 L -46.133999,4.184 -46,4.02 l 0.099,-0.185 0.061,-0.2009999 0.02,-0.211 V 0 v -10.642 -18.999001 -3.127001 -15.973999 -4.645 l 0.026,-0.249001 0.072,-0.231998 0.113998,-0.209999 0.151001,-0.183003 0.183003,-0.150997 0.209999,-0.114002 0.231998,-0.072 0.249001,-0.025 H -32.768002 -16.384001 0 27.636 l 1.104999,0.022 1.102001,0.066 1.098999,0.111 1.094,0.154999 0.732003,0.11866 32.768001,5.311764 2.063995,0.334575 0.202004,0.052 0.184998,0.085 0.164001,0.114003 0.141998,0.139999 0.115998,0.161999 0.08601,0.181 0.054,0.195999 0.019,0.207 9e-4,2.527001 0.0043,12.071998 0.0093,26.0280022 L 68.584854,0 l 0.0044,12.259 0.0058,16.265 -0.021,0.219999"
     id="path1" />
</svg>
